#tb 0: 1/25
#media_type 0: video
#codec_id 0: rawvideo
#dimensions 0: 352x288
#sar 0: 0/1
0,          1,          1,        1,   152064, 0x4bb46551
0,          3,          3,        1,   152064, 0x2a8380b0
0,          5,          5,        1,   152064, 0xedb5a8e6
0,          7,          7,        1,   152064, 0x5ab58bac
0,          9,          9,        1,   152064, 0x91373915
0,         11,         11,        1,   152064, 0x30f5fcd5
0,         13,         13,        1,   152064, 0x24eca223
0,         15,         15,        1,   152064, 0xa91c0f05
0,         17,         17,        1,   152064, 0xb15d38c8
0,         19,         19,        1,   152064, 0xf34ddbff
0,         21,         21,        1,   152064, 0x9dc72412
0,         23,         23,        1,   152064, 0x2f2768ef
0,         25,         25,        1,   152064, 0x95579936
0,         27,         27,        1,   152064, 0xd780d887
0,         29,         29,        1,   152064, 0x6dc3650e
0,         31,         31,        1,   152064, 0xe295c51e
0,         33,         33,        1,   152064, 0xe22f7a30
0,         35,         35,        1,   152064, 0xfa8d94fb
0,         37,         37,        1,   152064, 0xa50d01f8
0,         39,         39,        1,   152064, 0x88734edd
0,         41,         41,        1,   152064, 0xd4e49e08
0,         43,         43,        1,   152064, 0x575c20ec
0,         45,         45,        1,   152064, 0x61b47e73
0,         47,         47,        1,   152064, 0x6e88c5c2
0,         49,         49,        1,   152064, 0x4bbad8ea
